<svg width="575" height="89" viewBox="0 0 575 89" fill="none" xmlns="http://www.w3.org/2000/svg">
<path fill-rule="evenodd" clip-rule="evenodd" d="M23.6445 20.6377V3.31628C34.9733 3.31628 33.7602 20.6377 23.6445 20.6377Z" stroke="black" stroke-width="2.5" stroke-linejoin="round"/>
<path fill-rule="evenodd" clip-rule="evenodd" d="M42.752 20.6377V3.31628C54.0808 3.31628 52.8676 20.6377 42.752 20.6377Z" stroke="black" stroke-width="2.5" stroke-linejoin="round"/>
<path d="M71.9648 19.4821L61.4648 11.2857L71.9648 3.48212" stroke="black" stroke-width="2.5" stroke-linecap="round"/>
<path d="M90.5361 19.4821L80.0361 11.2857L90.5361 3.48212" stroke="black" stroke-width="2.5" stroke-linecap="round"/>
<path d="M7.5094 4.33401V19.5991M3.6582 3.87622H11.3606M3.6582 20.1018H11.3606" stroke="black" stroke-width="2.5" stroke-linecap="round" stroke-linejoin="round"/>
<path d="M272.447 2.98212H283.876C283.876 4.13113 276.863 13.89 276.197 16.375V21.1964" stroke="black" stroke-width="2.5" stroke-linecap="round"/>
<path d="M99.5 6.64286L105.304 2V21.4643" stroke="black" stroke-width="2.5" stroke-linecap="round" stroke-linejoin="round"/>
<path d="M162.804 2.26782L156.911 15.4821H167.715M164.768 11.1071V21.375" stroke="black" stroke-width="2.5" stroke-linecap="round"/>
<path d="M185.75 3.07141H177.893V8.87498C189.632 8.87498 187.198 23.7417 176.504 20.8763" stroke="black" stroke-width="2.5" stroke-linecap="round"/>
<path d="M203.161 2.08923C199.446 5.35619 196.928 9.90894 195.706 13.2946M206.554 15.3035C206.554 18.4085 204.034 20.9285 200.929 20.9285C197.824 20.9285 195.304 18.4085 195.304 15.3035C195.304 12.1985 197.824 9.67851 200.929 9.67851C204.034 9.67851 206.554 12.1985 206.554 15.3035Z" stroke="black" stroke-width="2.5" stroke-linecap="round"/>
<path d="M214.411 2.80353H225.84C225.84 3.95254 218.827 13.7114 218.161 16.1964V21.0178" stroke="black" stroke-width="2.5" stroke-linecap="round"/>
<path d="M138.404 19.0257C139.543 20.4804 141.212 21.1762 143.047 20.9604C145.861 20.6292 147.877 18.0763 147.546 15.2617C147.215 12.4472 144.662 10.4317 142.013 10.2654L147.358 2.625H137.269" stroke="black" stroke-width="2.5" stroke-linecap="round" stroke-linejoin="round"/>
<path d="M256.81 21.1192C260.5 17.8241 262.983 13.2524 264.18 9.85756M253.317 7.93107C253.293 4.82617 255.794 2.2871 258.899 2.26353C262.004 2.23994 264.543 4.74074 264.566 7.84564C264.59 10.9506 262.089 13.4896 258.984 13.5132C255.879 13.5368 253.34 11.036 253.317 7.93107Z" stroke="black" stroke-width="2.5" stroke-linecap="round"/>
<path d="M128.429 20.3928H118.464C118.464 20.3928 118.464 19.4107 118.464 17.3571C119.981 12.8635 132.994 8.35926 126.48 3.44645C124.01 2.10264 120.478 2.44398 118.597 4.20837" stroke="black" stroke-width="2.5" stroke-linecap="round" stroke-linejoin="round"/>
<path d="M243.697 6.0625C243.697 8.00928 241.697 9.58928 239.233 9.58928C236.768 9.58928 234.768 8.00928 234.768 6.0625C234.768 4.11571 236.768 2.53571 239.233 2.53571C241.697 2.53571 243.697 4.11571 243.697 6.0625ZM244.501 16.1071C244.501 18.9657 242.141 21.2857 239.233 21.2857C236.325 21.2857 233.965 18.9657 233.965 16.1071C233.965 13.2486 236.325 10.9286 239.233 10.9286C242.141 10.9286 244.501 13.2486 244.501 16.1071Z" stroke="black" stroke-width="2.5" stroke-linecap="round" stroke-linejoin="round"/>
<path d="M438.384 19.2991L427.884 11.1027L438.384 3.29913" stroke="black" stroke-width="2.5" stroke-linecap="round"/>
<path d="M457.58 19.2991L447.08 11.1027L457.58 3.29913" stroke="black" stroke-width="2.5" stroke-linecap="round"/>
<path d="M477.044 19.2991L466.544 11.1027L477.044 3.29913" stroke="black" stroke-width="2.5" stroke-linecap="round"/>
<path d="M496.151 19.2991L485.651 11.1027L496.151 3.29913" stroke="black" stroke-width="2.5" stroke-linecap="round"/>
<path d="M515.616 19.2991L505.116 11.1027L515.616 3.29913" stroke="black" stroke-width="2.5" stroke-linecap="round"/>
<path d="M534.991 19.2991L524.491 11.1027L534.991 3.29913" stroke="black" stroke-width="2.5" stroke-linecap="round"/>
<path d="M554.054 19.2991L543.554 11.1027L554.054 3.29913" stroke="black" stroke-width="2.5" stroke-linecap="round"/>
<path d="M573.429 19.2991L562.929 11.1027L573.429 3.29913" stroke="black" stroke-width="2.5" stroke-linecap="round"/>
<path d="M303.071 19.2991L292.571 11.1027L303.071 3.29913" stroke="black" stroke-width="2.5" stroke-linecap="round"/>
<path d="M322.535 19.2991L312.035 11.1027L322.535 3.29913" stroke="black" stroke-width="2.5" stroke-linecap="round"/>
<path d="M341.643 19.2991L331.143 11.1027L341.643 3.29913" stroke="black" stroke-width="2.5" stroke-linecap="round"/>
<path d="M361.106 19.2991L350.606 11.1027L361.106 3.29913" stroke="black" stroke-width="2.5" stroke-linecap="round"/>
<path d="M380.481 19.2991L369.981 11.1027L380.481 3.29913" stroke="black" stroke-width="2.5" stroke-linecap="round"/>
<path d="M399.544 19.2991L389.044 11.1027L399.544 3.29913" stroke="black" stroke-width="2.5" stroke-linecap="round"/>
<path d="M418.919 19.2991L408.419 11.1027L418.919 3.29913" stroke="black" stroke-width="2.5" stroke-linecap="round"/>
<path d="M573.055 52.5249H563.09C563.09 52.5249 563.09 51.5427 563.09 49.4892C564.607 44.9956 577.62 40.4913 571.106 35.5785C568.636 34.2347 565.104 34.5761 563.223 36.3405" stroke="black" stroke-width="2.5" stroke-linecap="round" stroke-linejoin="round"/>
<path d="M418.812 52.0028L408.312 43.8064L418.812 36.0028" stroke="black" stroke-width="2.5" stroke-linecap="round"/>
<path d="M438.009 52.0028L427.509 43.8064L438.009 36.0028" stroke="black" stroke-width="2.5" stroke-linecap="round"/>
<path d="M457.473 52.0028L446.973 43.8064L457.473 36.0028" stroke="black" stroke-width="2.5" stroke-linecap="round"/>
<path d="M476.58 52.0028L466.08 43.8064L476.58 36.0028" stroke="black" stroke-width="2.5" stroke-linecap="round"/>
<path d="M496.044 52.0028L485.544 43.8064L496.044 36.0028" stroke="black" stroke-width="2.5" stroke-linecap="round"/>
<path d="M515.419 52.0028L504.919 43.8064L515.419 36.0028" stroke="black" stroke-width="2.5" stroke-linecap="round"/>
<path d="M534.481 52.0028L523.981 43.8064L534.481 36.0028" stroke="black" stroke-width="2.5" stroke-linecap="round"/>
<path d="M553.856 52.0028L543.356 43.8064L553.856 36.0028" stroke="black" stroke-width="2.5" stroke-linecap="round"/>
<path d="M322.071 52.0028L311.571 43.8064L322.071 36.0028" stroke="black" stroke-width="2.5" stroke-linecap="round"/>
<path d="M341.535 52.0028L331.035 43.8064L341.535 36.0028" stroke="black" stroke-width="2.5" stroke-linecap="round"/>
<path d="M360.91 52.0028L350.41 43.8064L360.91 36.0028" stroke="black" stroke-width="2.5" stroke-linecap="round"/>
<path d="M379.973 52.0028L369.473 43.8064L379.973 36.0028" stroke="black" stroke-width="2.5" stroke-linecap="round"/>
<path d="M399.348 52.0028L388.848 43.8064L399.348 36.0028" stroke="black" stroke-width="2.5" stroke-linecap="round"/>
<path d="M2.38379 85.7684L7.67603 69.2075L12.7017 85.7052M4.73152 80.0056H10.4136" stroke="black" stroke-width="2.5" stroke-linecap="round" stroke-linejoin="round"/>
<path fill-rule="evenodd" clip-rule="evenodd" d="M23.2695 85.8751V68.5536C34.5983 68.5536 33.3852 85.8751 23.2695 85.8751Z" stroke="black" stroke-width="2.5" stroke-linejoin="round"/>
<path d="M51.9002 69.0766H41.8418V85.0766H51.9002M42.5563 77.3214H49.9016" stroke="black" stroke-width="2.5" stroke-linecap="round"/>
<path d="M60.0566 86.2815L60.542 70.0038L70.537 85.7494V68.993" stroke="black" stroke-width="2.5" stroke-linecap="round" stroke-linejoin="round"/>
<path d="M79.4082 85.7684L84.7004 69.2075L89.7261 85.7052M81.7559 80.0056H87.438" stroke="black" stroke-width="2.5" stroke-linecap="round" stroke-linejoin="round"/>
<path d="M98.4824 69.8331V81.955C98.4824 88.2781 109.847 87.9553 109.847 81.955V69.9594" stroke="black" stroke-width="2.5" stroke-linecap="round"/>
<path d="M129.4 69.0766H119.342V85.0766H129.4M120.056 77.3214H127.402" stroke="black" stroke-width="2.5" stroke-linecap="round"/>
<path d="M137.965 86.1659V69.1124H143.233C149.985 69.1124 147.682 77.5945 143.233 77.5945H138.054H142.518L147.574 86.3504" stroke="black" stroke-width="2.5" stroke-linecap="round" stroke-linejoin="round"/>
<path d="M195.937 86.2536V68.8285M206.101 68.8285L197.262 77.2885L206.101 86.1273" stroke="black" stroke-width="2.5" stroke-linecap="round"/>
<path d="M225.761 77.4779C225.761 79.873 225.173 82.17 224.126 83.8636C223.08 85.5572 221.66 86.5087 220.18 86.5087C218.7 86.5087 217.28 85.5572 216.233 83.8636C215.187 82.17 214.599 79.873 214.599 77.4779C214.599 75.0828 215.187 72.7858 216.233 71.0922C217.28 69.3987 218.7 68.4472 220.18 68.4472C221.66 68.4472 223.08 69.3987 224.126 71.0922C225.173 72.7858 225.761 75.0828 225.761 77.4779Z" stroke="black" stroke-width="2.5" stroke-linecap="round" stroke-linejoin="round"/>
<path d="M233.916 86.0539L234.401 69.7762L244.396 85.5218V68.7654" stroke="black" stroke-width="2.5" stroke-linecap="round" stroke-linejoin="round"/>
<path d="M253.906 86.3747V69.3211H259.174C265.926 69.3211 263.624 77.8032 259.174 77.8032H253.996H258.46L263.515 86.5591" stroke="black" stroke-width="2.5" stroke-linecap="round" stroke-linejoin="round"/>
<path d="M272.522 86.3343L277.815 69.7734L282.84 86.2711M274.87 80.5715H280.552" stroke="black" stroke-width="2.5" stroke-linecap="round" stroke-linejoin="round"/>
<path fill-rule="evenodd" clip-rule="evenodd" d="M293.408 86.464V69.1426C304.737 69.1426 303.524 86.464 293.408 86.464Z" stroke="black" stroke-width="2.5" stroke-linejoin="round"/>
<path d="M168.111 84.7195L157.611 76.5231L168.111 68.7195" stroke="black" stroke-width="2.5" stroke-linecap="round"/>
<path d="M186.683 84.7195L176.183 76.5231L186.683 68.7195" stroke="black" stroke-width="2.5" stroke-linecap="round"/>
<path d="M321.809 84.7195L311.309 76.5231L321.809 68.7195" stroke="black" stroke-width="2.5" stroke-linecap="round"/>
<path d="M331.033 86.0773V68.0209M340.251 86.0773V68.0209M331.359 77.0491H339.798" stroke="black" stroke-width="2.5" stroke-linecap="round"/>
<path d="M360.471 69.0766H350.413V85.0766H360.471M351.128 77.3214H358.473" stroke="black" stroke-width="2.5" stroke-linecap="round"/>
<path d="M369.036 86.1659V69.1124H374.304C381.056 69.1124 378.754 77.5945 374.304 77.5945H369.125H373.59L378.645 86.3504" stroke="black" stroke-width="2.5" stroke-linecap="round" stroke-linejoin="round"/>
<path d="M398.943 86.4972V69.1984L393.216 79.0309L387.488 69.1984V86.4972" stroke="black" stroke-width="2.5" stroke-linecap="round" stroke-linejoin="round"/>
<path d="M407.378 86.3343L412.67 69.7734L417.696 86.2711M409.726 80.5715H415.408" stroke="black" stroke-width="2.5" stroke-linecap="round" stroke-linejoin="round"/>
<path d="M426.351 86.0539L426.836 69.7762L436.831 85.5218V68.7654" stroke="black" stroke-width="2.5" stroke-linecap="round" stroke-linejoin="round"/>
<path d="M446.554 86.0539L447.039 69.7762L457.034 85.5218V68.7654" stroke="black" stroke-width="2.5" stroke-linecap="round" stroke-linejoin="round"/>
<path d="M492.251 68.6465V81.3251C492.251 87.7444 485.644 87.5434 485.644 81.3251" stroke="black" stroke-width="2.5" stroke-linecap="round" stroke-linejoin="round"/>
<path d="M514.666 77.7451C514.666 80.1402 514.077 82.4373 513.031 84.1308C511.984 85.8244 510.564 86.7759 509.084 86.7759C507.604 86.7759 506.184 85.8244 505.138 84.1308C504.091 82.4373 503.503 80.1402 503.503 77.7451C503.503 75.35 504.091 73.053 505.138 71.3595C506.184 69.6659 507.604 68.7144 509.084 68.7144C510.564 68.7144 511.984 69.6659 513.031 71.3595C514.077 73.053 514.666 75.35 514.666 77.7451Z" stroke="black" stroke-width="2.5" stroke-linecap="round" stroke-linejoin="round"/>
<path d="M533.444 72.6513C533.321 70.8634 532.135 69.4261 530.403 68.966C528.214 68.3845 525.965 69.6894 525.384 71.8787C524.802 74.0681 526.107 76.3169 529.021 77.5134C532 78.3465 533.653 80.3536 533.434 82.6083C533.216 84.863 531.209 86.5159 528.954 86.2977C527.141 86.1222 525.719 84.8541 525.337 83.0729" stroke="black" stroke-width="2.5" stroke-linecap="round"/>
<path d="M552.905 69.0766H542.847V85.0766H552.905M543.561 77.3214H550.906" stroke="black" stroke-width="2.5" stroke-linecap="round"/>
<path d="M562.626 86.1745V69.1209H569.501C574.053 69.1209 574.863 77.6031 569.501 77.6031H562.626" stroke="black" stroke-width="2.5" stroke-linecap="round"/>
<path fill-rule="evenodd" clip-rule="evenodd" d="M293.534 53.2552V35.9338C304.863 35.9338 303.65 53.2552 293.534 53.2552Z" stroke="black" stroke-width="2.5" stroke-linejoin="round"/>
<path d="M2 35.2143H13.4286C13.4286 36.3633 6.41586 46.1221 5.75 48.6071V53.4286" stroke="black" stroke-width="2.5" stroke-linecap="round"/>
<path d="M29.5007 34.5C25.7855 37.767 23.2679 42.3197 22.0453 45.7054M32.8936 47.7143C32.8936 50.8193 30.3736 53.3393 27.2686 53.3393C24.1636 53.3393 21.6436 50.8193 21.6436 47.7143C21.6436 44.6093 24.1636 42.0893 27.2686 42.0893C30.3736 42.0893 32.8936 44.6093 32.8936 47.7143Z" stroke="black" stroke-width="2.5" stroke-linecap="round"/>
<path d="M90.2148 39.6785C90.2148 36.9171 87.9763 34.6785 85.2148 34.6785C82.4534 34.6785 80.2148 36.9171 80.2148 39.6785V48.7857C80.2148 51.5471 82.4534 53.7857 85.2148 53.7857C87.9763 53.7857 90.2148 51.5471 90.2148 48.7857V39.6785Z" stroke="black" stroke-width="2.5" stroke-linecap="round"/>
<path d="M61.375 39.0536L67.1786 34.4107V53.875" stroke="black" stroke-width="2.5" stroke-linecap="round" stroke-linejoin="round"/>
<path d="M108.519 35.125H100.661V40.9286C112.4 40.9286 109.966 55.7953 99.2725 52.9298" stroke="black" stroke-width="2.5" stroke-linecap="round"/>
<path d="M121.342 53.5299C125.032 50.2348 127.515 45.6631 128.712 42.2683M117.849 40.3418C117.825 37.2369 120.326 34.6978 123.431 34.6742C126.536 34.6506 129.075 37.1514 129.098 40.2563C129.122 43.3613 126.621 45.9003 123.516 45.9239C120.411 45.9475 117.872 43.4467 117.849 40.3418Z" stroke="black" stroke-width="2.5" stroke-linecap="round"/>
<path d="M164.356 34.5C160.641 37.767 158.123 42.3197 156.901 45.7054M167.749 47.7143C167.749 50.8193 165.229 53.3393 162.124 53.3393C159.019 53.3393 156.499 50.8193 156.499 47.7143C156.499 44.6093 159.019 42.0893 162.124 42.0893C165.229 42.0893 167.749 44.6093 167.749 47.7143Z" stroke="black" stroke-width="2.5" stroke-linecap="round"/>
<path d="M148.929 53.339V36.0401L143.202 45.8726L137.475 36.0401V53.339" stroke="black" stroke-width="2.5" stroke-linecap="round" stroke-linejoin="round"/>
<path d="M175.999 35.2143H187.428C187.428 36.3633 180.415 46.1221 179.749 48.6071V53.4286" stroke="black" stroke-width="2.5" stroke-linecap="round"/>
<path d="M205.992 39.6785C205.992 36.9171 203.754 34.6785 200.992 34.6785C198.231 34.6785 195.992 36.9171 195.992 39.6785V48.7857C195.992 51.5471 198.231 53.7857 200.992 53.7857C203.754 53.7857 205.992 51.5471 205.992 48.7857V39.6785Z" stroke="black" stroke-width="2.5" stroke-linecap="round"/>
<path d="M220.483 34.6785L214.59 47.8928H225.393M222.447 43.5178V53.7857" stroke="black" stroke-width="2.5" stroke-linecap="round"/>
<path d="M234.947 39.0536L240.751 34.4107V53.875" stroke="black" stroke-width="2.5" stroke-linecap="round" stroke-linejoin="round"/>
<path d="M254.322 39.0536L260.126 34.4107V53.875" stroke="black" stroke-width="2.5" stroke-linecap="round" stroke-linejoin="round"/>
<path d="M282.447 35.125H274.59V40.9286C286.329 40.9286 283.895 55.7953 273.201 52.9298" stroke="black" stroke-width="2.5" stroke-linecap="round"/>
<path d="M53.25 39.3214C53.25 36.56 51.0114 34.3214 48.25 34.3214C45.4886 34.3214 43.25 36.56 43.25 39.3214V48.4286C43.25 51.19 45.4886 53.4286 48.25 53.4286C51.0114 53.4286 53.25 51.19 53.25 48.4286V39.3214Z" stroke="black" stroke-width="2.5" stroke-linecap="round"/>
<path d="M477.696 84.7195L467.196 76.5231L477.696 68.7195" stroke="black" stroke-width="2.5" stroke-linecap="round"/>
</svg>
