<svg width="844" height="55" viewBox="0 0 844 55" fill="none" xmlns="http://www.w3.org/2000/svg">
<path d="M32.0537 18.7859L21.5537 10.5895L32.0537 2.78592" stroke="black" stroke-width="2.5" stroke-linecap="round"/>
<path fill-rule="evenodd" clip-rule="evenodd" d="M41.7324 20.1431V2.82162C53.0612 2.82162 51.8481 20.1431 41.7324 20.1431Z" stroke="black" stroke-width="2.5" stroke-linejoin="round"/>
<path d="M97.8486 20.0134L103.141 3.45248L108.167 19.9503M100.196 14.2506H105.878" stroke="black" stroke-width="2.5" stroke-linecap="round" stroke-linejoin="round"/>
<path d="M147.989 2.78592H137.931V18.7859H147.989M138.645 11.0307H145.99" stroke="black" stroke-width="2.5" stroke-linecap="round"/>
<path d="M155.671 19.7329L156.156 3.45526L166.151 19.2009V2.44443" stroke="black" stroke-width="2.5" stroke-linecap="round" stroke-linejoin="round"/>
<path d="M194.393 2.69699V14.8188C194.393 21.142 205.757 20.8192 205.757 14.8188V2.82326" stroke="black" stroke-width="2.5" stroke-linecap="round"/>
<path d="M233.875 20.0538V3.00021H239.143C245.895 3.00021 243.593 11.4824 239.143 11.4824H233.964H238.429L243.484 20.2382" stroke="black" stroke-width="2.5" stroke-linecap="round" stroke-linejoin="round"/>
<path d="M291.367 20.3115V2.88638M301.532 2.88638L292.693 11.3464L301.532 20.1852" stroke="black" stroke-width="2.5" stroke-linecap="round"/>
<path d="M321.192 11.0307C321.192 13.4258 320.604 15.7228 319.557 17.4164C318.51 19.11 317.091 20.0615 315.611 20.0615C314.13 20.0615 312.711 19.11 311.664 17.4164C310.617 15.7228 310.029 13.4258 310.029 11.0307C310.029 8.63563 310.617 6.33863 311.664 4.64504C312.711 2.95145 314.13 2 315.611 2C317.091 2 318.51 2.95145 319.557 4.64504C320.604 6.33863 321.192 8.63563 321.192 11.0307Z" stroke="black" stroke-width="2.5" stroke-linecap="round" stroke-linejoin="round"/>
<path d="M426.854 20.5009V2.44443M436.071 20.5009V2.44443M427.18 11.4727H435.619" stroke="black" stroke-width="2.5" stroke-linecap="round"/>
<path d="M495.256 19.4168V2.11795L489.529 11.9505L483.802 2.11795V19.4168" stroke="black" stroke-width="2.5" stroke-linecap="round" stroke-linejoin="round"/>
<path d="M589.215 2.64304V15.3216C589.215 21.741 582.607 21.5399 582.607 15.3216" stroke="black" stroke-width="2.5" stroke-linecap="round" stroke-linejoin="round"/>
<path d="M2.08984 20.2323V3.17877H8.96484C13.5165 3.17877 14.3265 11.6609 8.96484 11.6609H2.08984" stroke="black" stroke-width="2.5" stroke-linecap="round"/>
<path d="M628.559 6.33036C628.436 4.54252 627.25 3.10517 625.519 2.64512C623.329 2.06357 621.08 3.36847 620.499 5.55781C619.917 7.74716 621.222 9.99599 624.136 11.1925C627.115 12.0256 628.768 14.0327 628.55 16.2874C628.331 18.5421 626.324 20.195 624.07 19.9768C622.256 19.8013 620.834 18.5332 620.452 16.752" stroke="black" stroke-width="2.5" stroke-linecap="round"/>
<path d="M2 38.0895L7.80357 33.4466V52.9109" stroke="black" stroke-width="2.5" stroke-linecap="round" stroke-linejoin="round"/>
<path d="M65.304 33.7145L59.4111 46.9288H70.2147M67.2683 42.5538V52.8216" stroke="black" stroke-width="2.5" stroke-linecap="round"/>
<path d="M88.25 34.518H80.3929V40.3216C92.1318 40.3216 89.6978 55.1883 79.0039 52.3229" stroke="black" stroke-width="2.5" stroke-linecap="round"/>
<path d="M105.661 33.5359C101.946 36.8029 99.4281 41.3556 98.2055 44.7413M109.054 46.7502C109.054 49.8552 106.534 52.3752 103.429 52.3752C100.324 52.3752 97.8037 49.8552 97.8037 46.7502C97.8037 43.6452 100.324 41.1252 103.429 41.1252C106.534 41.1252 109.054 43.6452 109.054 46.7502Z" stroke="black" stroke-width="2.5" stroke-linecap="round"/>
<path d="M116.911 34.2502H128.34C128.34 35.3992 121.327 45.1581 120.661 47.6431V52.4645" stroke="black" stroke-width="2.5" stroke-linecap="round"/>
<path d="M301.375 38.7145C301.375 35.9531 299.136 33.7145 296.375 33.7145C293.614 33.7145 291.375 35.9531 291.375 38.7145V47.8216C291.375 50.583 293.614 52.8216 296.375 52.8216C299.136 52.8216 301.375 50.583 301.375 47.8216V38.7145Z" stroke="black" stroke-width="2.5" stroke-linecap="round"/>
<path d="M40.9031 50.4723C42.0416 51.927 43.7115 52.6228 45.546 52.407C48.3605 52.0759 50.376 49.5229 50.0449 46.7084C49.7138 43.8939 47.1608 41.8783 44.5123 41.712L49.8569 34.0716H39.7676" stroke="black" stroke-width="2.5" stroke-linecap="round" stroke-linejoin="round"/>
<path d="M146.375 37.6877C146.375 39.6345 144.375 41.2145 141.91 41.2145C139.446 41.2145 137.446 39.6345 137.446 37.6877C137.446 35.7409 139.446 34.1609 141.91 34.1609C144.375 34.1609 146.375 35.7409 146.375 37.6877ZM147.178 47.7324C147.178 50.5909 144.818 52.9109 141.91 52.9109C139.003 52.9109 136.643 50.5909 136.643 47.7324C136.643 44.8738 139.003 42.5538 141.91 42.5538C144.818 42.5538 147.178 44.8738 147.178 47.7324Z" stroke="black" stroke-width="2.5" stroke-linecap="round" stroke-linejoin="round"/>
<path d="M159.31 52.5659C163 49.2708 165.483 44.6991 166.68 41.3042M155.817 39.3777C155.793 36.2728 158.294 33.7338 161.399 33.7102C164.504 33.6866 167.043 36.1874 167.066 39.2923C167.09 42.3972 164.589 44.9363 161.484 44.9599C158.379 44.9834 155.84 42.4826 155.817 39.3777Z" stroke="black" stroke-width="2.5" stroke-linecap="round"/>
<path d="M30.9287 51.8395H20.9639C20.9639 51.8395 20.9639 50.8574 20.9639 48.8038C22.4815 44.3102 35.494 39.8059 28.9798 34.8931C26.5097 33.5493 22.978 33.8907 21.0967 35.6551" stroke="black" stroke-width="2.5" stroke-linecap="round" stroke-linejoin="round"/>
<path d="M70 18.7859L59.5 10.5895L70 2.78592" stroke="black" stroke-width="2.5" stroke-linecap="round"/>
<path d="M89.8213 18.7859L79.3213 10.5895L89.8213 2.78592" stroke="black" stroke-width="2.5" stroke-linecap="round"/>
<path d="M263.304 18.7859L252.804 10.5895L263.304 2.78592" stroke="black" stroke-width="2.5" stroke-linecap="round"/>
<path d="M417.59 18.7859L407.09 10.5895L417.59 2.78592" stroke="black" stroke-width="2.5" stroke-linecap="round"/>
<path d="M572.143 18.7859L561.643 10.5895L572.143 2.78592" stroke="black" stroke-width="2.5" stroke-linecap="round"/>
<path d="M707.232 18.7859L696.732 10.5895L707.232 2.78592" stroke="black" stroke-width="2.5" stroke-linecap="round"/>
<path d="M726.429 18.7859L715.929 10.5895L726.429 2.78592" stroke="black" stroke-width="2.5" stroke-linecap="round"/>
<path d="M745.893 18.7859L735.393 10.5895L745.893 2.78592" stroke="black" stroke-width="2.5" stroke-linecap="round"/>
<path d="M765 18.7859L754.5 10.5895L765 2.78592" stroke="black" stroke-width="2.5" stroke-linecap="round"/>
<path d="M784.465 18.7859L773.965 10.5895L784.465 2.78592" stroke="black" stroke-width="2.5" stroke-linecap="round"/>
<path d="M803.84 18.7859L793.34 10.5895L803.84 2.78592" stroke="black" stroke-width="2.5" stroke-linecap="round"/>
<path d="M822.902 18.7859L812.402 10.5895L822.902 2.78592" stroke="black" stroke-width="2.5" stroke-linecap="round"/>
<path d="M842.277 18.7859L831.777 10.5895L842.277 2.78592" stroke="black" stroke-width="2.5" stroke-linecap="round"/>
<path d="M174.768 34.2502H186.196C186.196 35.3992 179.183 45.1581 178.518 47.6431V52.4645" stroke="black" stroke-width="2.5" stroke-linecap="round"/>
<path d="M251.732 34.2502H263.161C263.161 35.3992 256.148 45.1581 255.482 47.6431V52.4645" stroke="black" stroke-width="2.5" stroke-linecap="round"/>
<path fill-rule="evenodd" clip-rule="evenodd" d="M118.875 20.1431V2.82162C130.204 2.82162 128.991 20.1431 118.875 20.1431Z" stroke="black" stroke-width="2.5" stroke-linejoin="round"/>
<path d="M175.349 20.0134L180.641 3.45248L185.667 19.9503M177.696 14.2506H183.378" stroke="black" stroke-width="2.5" stroke-linecap="round" stroke-linejoin="round"/>
<path d="M225.132 2.78592H215.073V18.7859H225.132M215.788 11.0307H223.133" stroke="black" stroke-width="2.5" stroke-linecap="round"/>
<path d="M329.6 19.7329L330.085 3.45526L340.08 19.2009V2.44443" stroke="black" stroke-width="2.5" stroke-linecap="round" stroke-linejoin="round"/>
<path d="M349.59 20.0538V3.00021H354.858C361.61 3.00021 359.307 11.4824 354.858 11.4824H349.679H354.143L359.199 20.2382" stroke="black" stroke-width="2.5" stroke-linecap="round" stroke-linejoin="round"/>
<path d="M368.205 20.0134L373.497 3.45248L378.523 19.9503M370.553 14.2506H376.235" stroke="black" stroke-width="2.5" stroke-linecap="round" stroke-linejoin="round"/>
<path fill-rule="evenodd" clip-rule="evenodd" d="M389.091 20.1431V2.82162C400.42 2.82162 399.206 20.1431 389.091 20.1431Z" stroke="black" stroke-width="2.5" stroke-linejoin="round"/>
<path d="M456.292 2.78592H446.233V18.7859H456.292M446.948 11.0307H454.293" stroke="black" stroke-width="2.5" stroke-linecap="round"/>
<path d="M465.036 20.0538V3.00018H470.304C477.056 3.00018 474.754 11.4823 470.304 11.4823H465.125H469.59L474.645 20.2382" stroke="black" stroke-width="2.5" stroke-linecap="round" stroke-linejoin="round"/>
<path d="M503.205 20.0134L508.497 3.45248L513.523 19.9503M505.553 14.2506H511.235" stroke="black" stroke-width="2.5" stroke-linecap="round" stroke-linejoin="round"/>
<path d="M522.539 19.7329L523.024 3.45526L533.019 19.2009V2.44443" stroke="black" stroke-width="2.5" stroke-linecap="round" stroke-linejoin="round"/>
<path d="M541.731 19.7329L542.217 3.45526L552.212 19.2009V2.44443" stroke="black" stroke-width="2.5" stroke-linecap="round" stroke-linejoin="round"/>
<path d="M610.601 11.0307C610.601 13.4258 610.013 15.7228 608.966 17.4164C607.92 19.11 606.5 20.0615 605.02 20.0615C603.54 20.0615 602.12 19.11 601.073 17.4164C600.026 15.7228 599.438 13.4258 599.438 11.0307C599.438 8.63563 600.026 6.33863 601.073 4.64504C602.12 2.95145 603.54 2 605.02 2C606.5 2 607.92 2.95145 608.966 4.64504C610.013 6.33863 610.601 8.63563 610.601 11.0307Z" stroke="black" stroke-width="2.5" stroke-linecap="round" stroke-linejoin="round"/>
<path d="M649.149 2.78592H639.091V18.7859H649.149M639.805 11.0307H647.151" stroke="black" stroke-width="2.5" stroke-linecap="round"/>
<path d="M657.804 20.2323V3.17877H664.679C669.23 3.17877 670.04 11.6609 664.679 11.6609H657.804" stroke="black" stroke-width="2.5" stroke-linecap="round"/>
<path d="M677.624 20.5009V2.44443M686.842 20.5009V2.44443M677.95 11.4727H686.389" stroke="black" stroke-width="2.5" stroke-linecap="round"/>
<path d="M281.875 18.7859L271.375 10.5895L281.875 2.78592" stroke="black" stroke-width="2.5" stroke-linecap="round"/>
<path fill-rule="evenodd" clip-rule="evenodd" d="M195.877 52.4649V35.1435C207.206 35.1435 205.993 52.4649 195.877 52.4649Z" stroke="black" stroke-width="2.5" stroke-linejoin="round"/>
<path d="M279.232 33.5359C275.517 36.8029 272.999 41.3556 271.777 44.7413M282.625 46.7502C282.625 49.8552 280.105 52.3752 277 52.3752C273.895 52.3752 271.375 49.8552 271.375 46.7502C271.375 43.6452 273.895 41.1252 277 41.1252C280.105 41.1252 282.625 43.6452 282.625 46.7502Z" stroke="black" stroke-width="2.5" stroke-linecap="round"/>
<path d="M339.946 38.7145C339.946 35.9531 337.708 33.7145 334.946 33.7145C332.185 33.7145 329.946 35.9531 329.946 38.7145V47.8216C329.946 50.583 332.185 52.8216 334.946 52.8216C337.708 52.8216 339.946 50.583 339.946 47.8216V38.7145Z" stroke="black" stroke-width="2.5" stroke-linecap="round"/>
<path d="M311.107 38.0895L316.911 33.4466V52.9109" stroke="black" stroke-width="2.5" stroke-linecap="round" stroke-linejoin="round"/>
<path d="M358.25 34.1609H350.393V39.9645C362.132 39.9645 359.698 54.8312 349.004 51.9658" stroke="black" stroke-width="2.5" stroke-linecap="round"/>
<path d="M371.073 52.5659C374.764 49.2708 377.247 44.6991 378.443 41.3042M367.58 39.3777C367.557 36.2728 370.057 33.7338 373.162 33.7102C376.267 33.6866 378.806 36.1874 378.83 39.2923C378.854 42.3972 376.353 44.9363 373.248 44.9599C370.143 44.9834 367.604 42.4826 367.58 39.3777Z" stroke="black" stroke-width="2.5" stroke-linecap="round"/>
<path d="M414.088 33.5359C410.372 36.8029 407.855 41.3556 406.632 44.7413M417.48 46.7502C417.48 49.8552 414.96 52.3752 411.855 52.3752C408.75 52.3752 406.23 49.8552 406.23 46.7502C406.23 43.6452 408.75 41.1252 411.855 41.1252C414.96 41.1252 417.48 43.6452 417.48 46.7502Z" stroke="black" stroke-width="2.5" stroke-linecap="round"/>
<path d="M398.662 52.3749V35.076L392.934 44.9086L387.207 35.076V52.3749" stroke="black" stroke-width="2.5" stroke-linecap="round" stroke-linejoin="round"/>
<path d="M425.731 34.2502H437.16C437.16 35.3992 430.147 45.1581 429.481 47.6431V52.4645" stroke="black" stroke-width="2.5" stroke-linecap="round"/>
<path d="M455.724 38.7145C455.724 35.9531 453.485 33.7145 450.724 33.7145C447.962 33.7145 445.724 35.9531 445.724 38.7145V47.8216C445.724 50.583 447.962 52.8216 450.724 52.8216C453.485 52.8216 455.724 50.583 455.724 47.8216V38.7145Z" stroke="black" stroke-width="2.5" stroke-linecap="round"/>
<path d="M470.214 33.7145L464.321 46.9288H475.125M472.178 42.5538V52.8216" stroke="black" stroke-width="2.5" stroke-linecap="round"/>
<path d="M484.679 38.0895L490.482 33.4466V52.9109" stroke="black" stroke-width="2.5" stroke-linecap="round" stroke-linejoin="round"/>
<path d="M504.054 38.0895L509.857 33.4466V52.9109" stroke="black" stroke-width="2.5" stroke-linecap="round" stroke-linejoin="round"/>
<path d="M532.179 34.1609H524.322V39.9645C536.061 39.9645 533.627 54.8312 522.933 51.9658" stroke="black" stroke-width="2.5" stroke-linecap="round"/>
<path d="M842.07 51.8395H832.105C832.105 51.8395 832.105 50.8574 832.105 48.8038C833.623 44.3102 846.636 39.8059 840.121 34.8931C837.651 33.5493 834.12 33.8907 832.238 35.6551" stroke="black" stroke-width="2.5" stroke-linecap="round" stroke-linejoin="round"/>
<path d="M687.827 51.3174L677.327 43.1209L687.827 35.3174" stroke="black" stroke-width="2.5" stroke-linecap="round"/>
<path d="M707.024 51.3174L696.524 43.1209L707.024 35.3174" stroke="black" stroke-width="2.5" stroke-linecap="round"/>
<path d="M726.488 51.3174L715.988 43.1209L726.488 35.3174" stroke="black" stroke-width="2.5" stroke-linecap="round"/>
<path d="M745.596 51.3174L735.096 43.1209L745.596 35.3174" stroke="black" stroke-width="2.5" stroke-linecap="round"/>
<path d="M765.06 51.3174L754.56 43.1209L765.06 35.3174" stroke="black" stroke-width="2.5" stroke-linecap="round"/>
<path d="M784.435 51.3174L773.935 43.1209L784.435 35.3174" stroke="black" stroke-width="2.5" stroke-linecap="round"/>
<path d="M803.497 51.3174L792.997 43.1209L803.497 35.3174" stroke="black" stroke-width="2.5" stroke-linecap="round"/>
<path d="M822.872 51.3174L812.372 43.1209L822.872 35.3174" stroke="black" stroke-width="2.5" stroke-linecap="round"/>
<path d="M552.515 51.3174L542.015 43.1209L552.515 35.3174" stroke="black" stroke-width="2.5" stroke-linecap="round"/>
<path d="M571.979 51.3174L561.479 43.1209L571.979 35.3174" stroke="black" stroke-width="2.5" stroke-linecap="round"/>
<path d="M591.087 51.3174L580.587 43.1209L591.087 35.3174" stroke="black" stroke-width="2.5" stroke-linecap="round"/>
<path d="M610.551 51.3174L600.051 43.1209L610.551 35.3174" stroke="black" stroke-width="2.5" stroke-linecap="round"/>
<path d="M629.926 51.3174L619.426 43.1209L629.926 35.3174" stroke="black" stroke-width="2.5" stroke-linecap="round"/>
<path d="M648.988 51.3174L638.488 43.1209L648.988 35.3174" stroke="black" stroke-width="2.5" stroke-linecap="round"/>
<path d="M668.363 51.3174L657.863 43.1209L668.363 35.3174" stroke="black" stroke-width="2.5" stroke-linecap="round"/>
<path d="M224.346 51.3174L213.846 43.1209L224.346 35.3174" stroke="black" stroke-width="2.5" stroke-linecap="round"/>
<path d="M243.81 51.3174L233.31 43.1209L243.81 35.3174" stroke="black" stroke-width="2.5" stroke-linecap="round"/>
</svg>
